<?xml version="1.0" encoding="UTF-8" standalone="no"?>
<!DOCTYPE svg PUBLIC "-//W3C//DTD SVG 1.1//EN" "http://www.w3.org/Graphics/SVG/1.1/DTD/svg11.dtd">
<svg width="100%" height="100%" viewBox="0 0 1000 1000" version="1.1" xmlns="http://www.w3.org/2000/svg" xmlns:xlink="http://www.w3.org/1999/xlink" xml:space="preserve" xmlns:serif="http://www.serif.com/" style="fill-rule:evenodd;clip-rule:evenodd;stroke-linejoin:round;stroke-miterlimit:2;">
    <g transform="matrix(0.309309,0,0,0.309309,624.982,10.8863)">
        <path d="M843.996,259.058L839.998,259.058L839.998,149.513C839.998,114.732 811.377,86.111 776.596,86.111L544.509,86.111C509.728,86.111 481.107,114.732 481.107,149.513L481.107,750.487C481.107,785.268 509.728,813.889 544.509,813.889L776.596,813.889C811.377,813.889 839.997,785.269 839.998,750.487L839.998,337.035L843.996,337.035L843.996,259.058Z" style="fill:rgb(63,61,86);fill-rule:nonzero;"/>
    </g>
    <g transform="matrix(0.309309,0,0,0.309309,624.982,10.8863)">
        <path d="M779.154,102.606L748.859,102.606C749.959,105.303 750.525,108.189 750.525,111.102C750.525,123.441 740.371,133.596 728.032,133.597L595.072,133.597C582.733,133.596 572.579,123.441 572.579,111.102C572.579,108.189 573.145,105.303 574.245,102.606L545.95,102.606C519.975,102.606 498.602,123.98 498.602,149.954L498.602,750.046C498.602,776.021 519.975,797.394 545.949,797.394L779.154,797.394C805.128,797.394 826.502,776.021 826.502,750.046L826.502,149.954C826.502,123.98 805.128,102.606 779.154,102.606Z" style="fill:white;fill-rule:nonzero;"/>
    </g>
    <g transform="matrix(0.309309,0,0,0.309309,661.171,37.5212)">
        <ellipse cx="593.858" cy="272.708" rx="42" ry="4" style="fill:rgb(230,230,230);"/>
    </g>
    <g transform="matrix(0.309309,0,0,0.309309,661.171,37.5212)">
        <path d="M965.998,99.868L579.346,99.868L579.346,226.799L593.992,226.799L593.992,259.997L627.189,226.799L965.998,226.799L965.998,99.868Z" style="fill:rgb(108,99,255);fill-rule:nonzero;"/>
    </g>
    <g transform="matrix(0.309309,0,0,0.309309,661.171,37.5212)">
        <rect x="622.381" y="142.852" width="175.821" height="5.336" style="fill:white;"/>
    </g>
    <g transform="matrix(0.309309,0,0,0.309309,661.171,37.5212)">
        <rect x="622.381" y="161.31" width="306.441" height="5.336" style="fill:white;"/>
    </g>
    <g transform="matrix(0.309309,0,0,0.309309,661.171,37.5212)">
        <rect x="622.381" y="179.768" width="306.141" height="5.336" style="fill:white;"/>
    </g>
    <g transform="matrix(0.309309,0,0,0.309309,661.171,37.5212)">
        <path d="M867.219,482.708L558.58,482.708L558.58,584.029L570.271,584.029L570.271,610.528L596.77,584.029L867.219,584.029L867.219,482.708Z" style="fill:rgb(108,99,255);fill-rule:nonzero;"/>
    </g>
    <g transform="matrix(0.309309,0,0,0.309309,661.171,37.5212)">
        <rect x="592.932" y="517.019" width="140.346" height="4.259" style="fill:white;"/>
    </g>
    <g transform="matrix(0.309309,0,0,0.309309,661.171,37.5212)">
        <rect x="592.932" y="531.753" width="244.612" height="4.259" style="fill:white;"/>
    </g>
    <g transform="matrix(0.309309,0,0,0.309309,661.171,37.5212)">
        <rect x="592.932" y="546.487" width="244.372" height="4.259" style="fill:white;"/>
    </g>
    <g transform="matrix(0.309309,0,0,0.309309,661.171,37.5212)">
        <ellipse cx="570.163" cy="620.675" rx="33.526" ry="3.193" style="fill:rgb(230,230,230);"/>
    </g>
    <g transform="matrix(0.309309,0,0,0.309309,661.171,37.5212)">
        <ellipse cx="477.858" cy="420.708" rx="42" ry="4" style="fill:rgb(230,230,230);"/>
    </g>
    <g transform="matrix(0.309309,0,0,0.309309,661.171,37.5212)">
        <path d="M220.435,298.894L492.342,298.894L492.342,388.157L482.042,388.157L482.042,411.502L458.697,388.157L220.435,388.157L220.435,298.894Z" style="fill:rgb(108,99,255);fill-rule:nonzero;"/>
    </g>
    <g transform="matrix(0.309309,0,0,0.309309,661.171,37.5212)">
        <rect x="248.638" y="328.435" width="123.643" height="3.752" style="fill:white;"/>
    </g>
    <g transform="matrix(0.309309,0,0,0.309309,661.171,37.5212)">
        <rect x="248.638" y="341.416" width="215.499" height="3.752" style="fill:white;"/>
    </g>
    <g transform="matrix(0.309309,0,0,0.309309,661.171,37.5212)">
        <rect x="248.638" y="354.396" width="215.288" height="3.752" style="fill:white;"/>
    </g>
</svg>
