<?xml version="1.0" encoding="UTF-8" standalone="no"?>
<!DOCTYPE svg PUBLIC "-//W3C//DTD SVG 1.1//EN" "http://www.w3.org/Graphics/SVG/1.1/DTD/svg11.dtd">
<svg width="100%" height="100%" viewBox="0 0 1000 1000" version="1.1" xmlns="http://www.w3.org/2000/svg" xmlns:xlink="http://www.w3.org/1999/xlink" xml:space="preserve" xmlns:serif="http://www.serif.com/" style="fill-rule:evenodd;clip-rule:evenodd;stroke-linejoin:round;stroke-miterlimit:2;">
    <g id="ab2e16f2-9798-47da-b25d-769524f3c86f" transform="matrix(0.542533,0,0,0.542533,279.212,370.744)">
        <rect x="0.3" y="19.289" width="703.576" height="333.859" style="fill:rgb(230,230,230);"/>
    </g>
    <g id="bf81c03f-68cf-4889-8697-1102f95f97bb" transform="matrix(0.542533,0,0,0.542533,279.212,370.744)">
        <rect x="20.419" y="47.918" width="663.339" height="278.549" style="fill:white;"/>
    </g>
    <g id="f065dccc-d150-492a-a09f-a7f3f89523f0" transform="matrix(0.542533,0,0,0.542533,279.212,370.744)">
        <rect x="0" y="0" width="703.576" height="29.89" style="fill:rgb(108,99,255);"/>
    </g>
    <g id="bdbbf39c-df25-4682-8b85-5a6af4a1bd14" transform="matrix(0.542533,0,0,0.542533,279.212,370.744)">
        <circle cx="22.212" cy="17.576" r="5.54" style="fill:rgb(255,82,118);"/>
    </g>
    <g id="abcd4292-0b1f-4102-9b5e-e8bbd87baabc" transform="matrix(0.542533,0,0,0.542533,279.212,370.744)">
        <circle cx="43.24" cy="17.576" r="5.54" style="fill:rgb(254,255,77);"/>
    </g>
    <g id="a3fb731e-8b3d-41ca-96f2-91600dc0b434" transform="matrix(0.542533,0,0,0.542533,279.212,370.744)">
        <circle cx="64.269" cy="17.576" r="5.54" style="fill:rgb(31,255,126);"/>
    </g>
    <g transform="matrix(0.542533,0,0,0.542533,279.212,370.744)">
        <rect x="402.655" y="90.268" width="93.423" height="7.022" style="fill:rgb(230,230,230);"/>
    </g>
    <g transform="matrix(0.542533,0,0,0.542533,279.212,370.744)">
        <rect x="402.655" y="110.882" width="144.266" height="7.022" style="fill:rgb(108,99,255);"/>
    </g>
    <g transform="matrix(0.542533,0,0,0.542533,279.212,370.744)">
        <rect x="404.155" y="130.514" width="117.573" height="7.022" style="fill:rgb(230,230,230);"/>
    </g>
    <g transform="matrix(0.542533,0,0,0.542533,279.212,370.744)">
        <rect x="402.655" y="152.055" width="68.637" height="7.022" style="fill:rgb(230,230,230);"/>
    </g>
    <g transform="matrix(0.542533,0,0,0.542533,279.212,370.744)">
        <rect x="402.655" y="173.095" width="103.592" height="7.022" style="fill:rgb(108,99,255);"/>
    </g>
    <g transform="matrix(0.542533,0,0,0.542533,279.212,370.744)">
        <rect x="360.074" y="88.059" width="11.44" height="11.44" style="fill:rgb(230,230,230);"/>
    </g>
    <g transform="matrix(0.542533,0,0,0.542533,279.212,370.744)">
        <rect x="360.074" y="108.673" width="11.44" height="11.44" style="fill:rgb(108,99,255);"/>
    </g>
    <g transform="matrix(0.542533,0,0,0.542533,279.212,370.744)">
        <rect x="360.074" y="128.305" width="11.44" height="11.44" style="fill:rgb(230,230,230);"/>
    </g>
    <g transform="matrix(0.542533,0,0,0.542533,279.212,370.744)">
        <rect x="360.074" y="149.846" width="11.44" height="11.44" style="fill:rgb(230,230,230);"/>
    </g>
    <g transform="matrix(0.542533,0,0,0.542533,279.212,370.744)">
        <rect x="360.074" y="170.887" width="11.44" height="11.44" style="fill:rgb(108,99,255);"/>
    </g>
    <g transform="matrix(0.542533,0,0,0.542533,279.212,370.744)">
        <rect x="402.655" y="194.268" width="93.423" height="7.022" style="fill:rgb(230,230,230);"/>
    </g>
    <g transform="matrix(0.542533,0,0,0.542533,279.212,370.744)">
        <rect x="402.655" y="214.882" width="144.266" height="7.022" style="fill:rgb(108,99,255);"/>
    </g>
    <g transform="matrix(0.542533,0,0,0.542533,279.212,370.744)">
        <rect x="404.155" y="234.514" width="117.573" height="7.022" style="fill:rgb(230,230,230);"/>
    </g>
    <g transform="matrix(0.542533,0,0,0.542533,279.212,370.744)">
        <rect x="402.655" y="256.055" width="68.637" height="7.022" style="fill:rgb(230,230,230);"/>
    </g>
    <g transform="matrix(0.542533,0,0,0.542533,279.212,370.744)">
        <rect x="402.655" y="277.095" width="103.592" height="7.022" style="fill:rgb(230,230,230);"/>
    </g>
    <g transform="matrix(0.542533,0,0,0.542533,279.212,370.744)">
        <rect x="360.074" y="192.059" width="11.44" height="11.44" style="fill:rgb(230,230,230);"/>
    </g>
    <g transform="matrix(0.542533,0,0,0.542533,279.212,370.744)">
        <rect x="360.074" y="212.673" width="11.44" height="11.44" style="fill:rgb(108,99,255);"/>
    </g>
    <g transform="matrix(0.542533,0,0,0.542533,279.212,370.744)">
        <rect x="360.074" y="232.305" width="11.44" height="11.44" style="fill:rgb(230,230,230);"/>
    </g>
    <g transform="matrix(0.542533,0,0,0.542533,279.212,370.744)">
        <rect x="360.074" y="253.846" width="11.44" height="11.44" style="fill:rgb(230,230,230);"/>
    </g>
    <g transform="matrix(0.542533,0,0,0.542533,279.212,370.744)">
        <rect x="360.074" y="274.887" width="11.44" height="11.44" style="fill:rgb(230,230,230);"/>
    </g>
    <g transform="matrix(0.542533,0,0,0.542533,279.212,370.744)">
        <rect x="107.112" y="249.347" width="93.423" height="7.022" style="fill:rgb(63,61,86);"/>
    </g>
    <g transform="matrix(0.542533,0,0,0.542533,279.212,370.744)">
        <rect x="94.612" y="267.593" width="117.573" height="7.022" style="fill:rgb(63,61,86);"/>
    </g>
    <g transform="matrix(0.542533,0,0,0.542533,165.095,283.924)">
        <path d="M424.884,320.798C424.872,354.265 397.329,381.798 363.862,381.798C353.775,381.798 343.844,379.297 334.96,374.519L334.948,374.507C315.222,363.88 302.877,343.208 302.877,320.801C302.877,287.336 330.415,259.798 363.881,259.798C397.345,259.798 424.882,287.333 424.884,320.798Z" style="fill:rgb(63,61,86);fill-rule:nonzero;"/>
    </g>
    <g transform="matrix(0.542533,0,0,0.542533,279.212,370.744)">
        <circle cx="153.855" cy="141.226" r="16.583" style="fill:white;"/>
    </g>
    <g transform="matrix(0.542533,0,0,0.542533,165.095,283.924)">
        <path d="M392.51,352.1C373.976,358.606 353.754,358.527 335.271,351.878L335.259,351.87L347.613,327.484L380.778,327.484L392.51,352.1Z" style="fill:white;fill-rule:nonzero;"/>
    </g>
</svg>
