<?xml version="1.0" encoding="UTF-8" standalone="no"?>
<!DOCTYPE svg PUBLIC "-//W3C//DTD SVG 1.1//EN" "http://www.w3.org/Graphics/SVG/1.1/DTD/svg11.dtd">
<svg width="100%" height="100%" viewBox="0 0 1000 1000" version="1.1" xmlns="http://www.w3.org/2000/svg" xmlns:xlink="http://www.w3.org/1999/xlink" xml:space="preserve" xmlns:serif="http://www.serif.com/" style="fill-rule:evenodd;clip-rule:evenodd;stroke-linejoin:round;stroke-miterlimit:2;">
    <g transform="matrix(0.597071,0,0,0.590665,451.647,616.178)">
        <path d="M854.566,579.69L213.728,579.69C204.68,579.68 197.238,572.238 197.228,563.19L197.228,168.036C197.235,161.408 202.687,155.956 209.316,155.948L858.769,155.948C865.512,155.956 871.059,161.502 871.066,168.245L871.066,563.19C871.056,572.238 863.614,579.68 854.566,579.69Z" style="fill:rgb(242,242,242);fill-rule:nonzero;"/>
    </g>
    <g transform="matrix(0.597153,0,0,0.597153,451.748,617.676)">
        <path d="M833.847,558.858L236.602,558.858C227.847,558.858 220.724,552.188 220.724,543.99L220.724,199.885C220.724,193.805 226.002,188.858 232.49,188.858L837.764,188.858C844.359,188.858 849.724,193.886 849.724,200.066L849.724,543.99C849.724,552.188 842.601,558.858 833.847,558.858Z" style="fill:white;fill-rule:nonzero;"/>
    </g>
    <g transform="matrix(0.597153,0,0,0.597153,451.748,617.676)">
        <path d="M870.837,170.092L196.996,170.092L196.996,161.692C197.009,152.614 204.478,145.15 213.556,145.142L854.277,145.142C863.354,145.15 870.824,152.614 870.837,161.692L870.837,170.092Z" style="fill:rgb(63,61,86);fill-rule:nonzero;"/>
    </g>
    <g transform="matrix(0.597153,0,0,0.597153,569.384,704.348)">
        <circle cx="30.095" cy="12.5" r="4.283" style="fill:white;"/>
    </g>
    <g transform="matrix(0.597153,0,0,0.597153,569.384,704.348)">
        <circle cx="46.354" cy="12.5" r="4.283" style="fill:white;"/>
    </g>
    <g transform="matrix(0.597153,0,0,0.597153,569.384,704.348)">
        <circle cx="62.613" cy="12.5" r="4.283" style="fill:white;"/>
    </g>
    <g transform="matrix(0.597153,0,0,0.597153,451.748,617.676)">
        <path d="M389.344,242.908L283.79,242.908C275.015,242.908 267.794,250.128 267.794,258.903L267.794,330.742C267.794,339.517 275.015,346.738 283.79,346.738L389.344,346.738C398.121,346.737 405.343,339.515 405.344,330.738L405.344,258.908C405.343,250.131 398.121,242.909 389.344,242.908Z" style="fill:rgb(108,99,255);fill-rule:nonzero;"/>
    </g>
    <g transform="matrix(0.597153,0,0,0.597153,451.748,617.676)">
        <path d="M463.793,258.904L463.793,330.743C463.793,339.52 471.015,346.743 479.793,346.743L585.341,346.743C594.118,346.743 601.341,339.52 601.341,330.743L601.341,258.904C601.341,250.127 594.118,242.904 585.341,242.904L479.793,242.904C471.015,242.904 463.793,250.127 463.793,258.904Z" style="fill:rgb(108,99,255);fill-rule:nonzero;"/>
    </g>
    <g transform="matrix(0.597153,0,0,0.597153,451.748,617.676)">
        <path d="M659.793,258.904L659.793,330.743C659.793,339.52 667.015,346.743 675.793,346.743L781.341,346.743C790.118,346.743 797.341,339.52 797.341,330.743L797.341,258.904C797.341,250.127 790.118,242.904 781.341,242.904L675.793,242.904C667.015,242.904 659.793,250.127 659.793,258.904Z" style="fill:rgb(230,230,230);fill-rule:nonzero;"/>
    </g>
    <g transform="matrix(0.597153,0,0,0.597153,451.748,617.676)">
        <path d="M267.793,417.904L267.793,489.743C267.793,498.52 275.015,505.743 283.793,505.743L389.341,505.743C398.118,505.743 405.341,498.52 405.341,489.743L405.341,417.904C405.341,409.127 398.118,401.904 389.341,401.904L283.793,401.904C275.015,401.904 267.793,409.127 267.793,417.904Z" style="fill:rgb(230,230,230);fill-rule:nonzero;"/>
    </g>
    <g transform="matrix(0.597153,0,0,0.597153,451.748,617.676)">
        <path d="M463.793,417.904L463.793,489.743C463.793,498.52 471.015,505.743 479.793,505.743L585.341,505.743C594.118,505.743 601.341,498.52 601.341,489.743L601.341,417.904C601.341,409.127 594.118,401.904 585.341,401.904L479.793,401.904C471.015,401.904 463.793,409.127 463.793,417.904Z" style="fill:rgb(230,230,230);fill-rule:nonzero;"/>
    </g>
    <g transform="matrix(0.597153,0,0,0.597153,451.748,617.676)">
        <path d="M659.793,417.904L659.793,489.743C659.793,498.52 667.015,505.743 675.793,505.743L781.341,505.743C790.118,505.743 797.341,498.52 797.341,489.743L797.341,417.904C797.341,409.127 790.118,401.904 781.341,401.904L675.793,401.904C667.015,401.904 659.793,409.127 659.793,417.904Z" style="fill:rgb(108,99,255);fill-rule:nonzero;"/>
    </g>
    <g transform="matrix(0.597153,0,0,0.597153,569.384,704.348)">
        <circle cx="139.57" cy="149.681" r="22" style="fill:white;"/>
    </g>
    <g transform="matrix(0.597153,0,0,0.597153,451.748,617.676)">
        <path d="M370.184,348.738L302.944,348.738C304.515,345.706 306.542,342.934 308.954,340.518C315.134,334.324 323.535,330.846 332.284,330.858L340.844,330.858C353.183,330.852 364.533,337.769 370.184,348.738Z" style="fill:white;fill-rule:nonzero;"/>
    </g>
    <g transform="matrix(0.597153,0,0,0.597153,569.384,704.348)">
        <circle cx="335.57" cy="149.681" r="22" style="fill:white;"/>
    </g>
    <g transform="matrix(0.597153,0,0,0.597153,451.748,617.676)">
        <path d="M566.184,348.738L498.944,348.738C500.515,345.706 502.542,342.934 504.954,340.518C511.134,334.324 519.535,330.846 528.284,330.858L536.844,330.858C549.183,330.852 560.533,337.769 566.184,348.738Z" style="fill:white;fill-rule:nonzero;"/>
    </g>
    <g transform="matrix(0.597153,0,0,0.597153,569.384,704.348)">
        <circle cx="531.57" cy="149.681" r="22" style="fill:white;"/>
    </g>
    <g transform="matrix(0.597153,0,0,0.597153,451.748,617.676)">
        <path d="M762.184,348.738L694.944,348.738C696.515,345.706 698.542,342.934 700.954,340.518C707.134,334.324 715.535,330.846 724.284,330.858L732.844,330.858C745.183,330.852 756.533,337.769 762.184,348.738Z" style="fill:white;fill-rule:nonzero;"/>
    </g>
    <g transform="matrix(0.597153,0,0,0.597153,569.384,704.348)">
        <circle cx="139.57" cy="308.681" r="22" style="fill:white;"/>
    </g>
    <g transform="matrix(0.597153,0,0,0.597153,451.748,617.676)">
        <path d="M370.184,507.738L302.944,507.738C304.515,504.706 306.542,501.934 308.954,499.518C315.134,493.324 323.535,489.846 332.284,489.858L340.844,489.858C353.183,489.852 364.533,496.769 370.184,507.738Z" style="fill:white;fill-rule:nonzero;"/>
    </g>
    <g transform="matrix(0.597153,0,0,0.597153,569.384,704.348)">
        <circle cx="335.57" cy="308.681" r="22" style="fill:white;"/>
    </g>
    <g transform="matrix(0.597153,0,0,0.597153,451.748,617.676)">
        <path d="M566.184,507.738L498.944,507.738C500.515,504.706 502.542,501.934 504.954,499.518C511.134,493.324 519.535,489.846 528.284,489.858L536.844,489.858C549.183,489.852 560.533,496.769 566.184,507.738Z" style="fill:white;fill-rule:nonzero;"/>
    </g>
    <g transform="matrix(0.597153,0,0,0.597153,569.384,704.348)">
        <circle cx="531.57" cy="308.681" r="22" style="fill:white;"/>
    </g>
    <g transform="matrix(0.597153,0,0,0.597153,451.748,617.676)">
        <path d="M762.184,507.738L694.944,507.738C696.515,504.706 698.542,501.934 700.954,499.518C707.134,493.324 715.535,489.846 724.284,489.858L732.844,489.858C745.183,489.852 756.533,496.769 762.184,507.738Z" style="fill:white;fill-rule:nonzero;"/>
    </g>
</svg>
