<?xml version="1.0" encoding="UTF-8" standalone="no"?>
<!DOCTYPE svg PUBLIC "-//W3C//DTD SVG 1.1//EN" "http://www.w3.org/Graphics/SVG/1.1/DTD/svg11.dtd">
<svg width="100%" height="100%" viewBox="0 0 1000 1000" version="1.1" xmlns="http://www.w3.org/2000/svg" xmlns:xlink="http://www.w3.org/1999/xlink" xml:space="preserve" xmlns:serif="http://www.serif.com/" style="fill-rule:evenodd;clip-rule:evenodd;stroke-linejoin:round;stroke-miterlimit:2;">
    <g transform="matrix(0.394181,0,0,0.394181,-21.3233,698.307)">
        <path d="M560.206,676.255L545.614,670.111L535.604,596.959L402.299,596.959L391.449,669.812L378.393,676.339C377.345,676.864 376.68,677.94 376.68,679.112C376.68,680.813 378.079,682.212 379.78,682.212L559.004,682.212C560.704,682.212 562.104,680.813 562.104,679.112C562.104,677.867 561.354,676.738 560.206,676.255Z" style="fill:rgb(230,230,230);fill-rule:nonzero;"/>
    </g>
    <g transform="matrix(0.394181,0,0,0.394181,-21.3233,698.307)">
        <path d="M797.098,606.692L142.268,606.692C135.162,606.676 129.324,600.824 129.324,593.718L129.324,501.379L810.042,501.379L810.042,593.719C810.042,600.824 804.203,606.676 797.098,606.692Z" style="fill:rgb(204,204,204);fill-rule:nonzero;"/>
    </g>
    <g transform="matrix(0.394181,0,0,0.394181,-21.3233,698.307)">
        <path d="M810.726,545.021L128.726,545.021L128.726,149.92C128.736,141.344 135.79,134.29 144.366,134.28L795.087,134.28C803.662,134.29 810.716,141.344 810.726,149.92L810.726,545.021Z" style="fill:rgb(63,61,86);fill-rule:nonzero;"/>
    </g>
    <g transform="matrix(0.394181,0,0,0.394181,-21.3233,698.307)">
        <path d="M769.993,516.344L169.46,516.344C162.848,516.337 157.41,510.899 157.403,504.288L157.403,175.014C157.41,168.402 162.848,162.964 169.46,162.956L769.993,162.956C776.605,162.964 782.043,168.402 782.05,175.014L782.05,504.288C782.043,510.899 776.605,516.337 769.993,516.344Z" style="fill:white;fill-rule:nonzero;"/>
    </g>
    <g transform="matrix(0.394181,0,0,0.394181,29.418,751.238)">
        <rect x="489.86" y="81.909" width="144.996" height="110.773" style="fill:rgb(242,242,242);"/>
    </g>
    <g transform="matrix(0.394181,0,0,0.394181,29.418,751.238)">
        <rect x="497.065" y="87.414" width="130.586" height="99.765" style="fill:white;"/>
    </g>
    <g transform="matrix(0.394181,0,0,0.394181,-21.3233,698.307)">
        <path d="M693.377,295.695C693.395,295.695 693.412,295.695 693.429,295.694C711.818,294.732 726.427,279.339 726.427,260.924C726.427,242.803 712.279,227.557 694.208,226.205C693.988,226.187 693.77,226.263 693.607,226.413C693.445,226.561 693.352,226.769 693.35,226.989L692.589,294.891C692.585,295.327 692.941,295.69 693.377,295.695Z" style="fill:rgb(63,61,86);fill-rule:nonzero;"/>
    </g>
    <g transform="matrix(0.394181,0,0,0.394181,-21.3233,698.307)">
        <path d="M666.072,237.433C666.343,237.436 666.602,237.547 666.792,237.74L690.167,261.646C690.357,261.839 690.462,262.1 690.458,262.371L690.094,294.863C690.092,295.144 689.972,295.413 689.764,295.603C689.555,295.795 689.276,295.892 688.993,295.87C670.804,294.509 656.564,279.163 656.564,260.924C656.564,252.407 659.668,244.175 665.293,237.78C665.481,237.567 665.75,237.441 666.034,237.433L666.072,237.433Z" style="fill:rgb(230,230,230);fill-rule:nonzero;"/>
    </g>
    <g transform="matrix(0.394181,0,0,0.394181,-21.3233,698.307)">
        <path d="M689.842,225.927C690.103,225.93 690.353,226.033 690.541,226.213C690.746,226.408 690.86,226.679 690.855,226.961L690.527,256.277C690.52,256.832 690.062,257.286 689.506,257.286C689.231,257.286 688.968,257.175 688.776,256.979L668.378,236.118C668.191,235.927 668.087,235.67 668.087,235.403C668.087,235.11 668.213,234.831 668.433,234.636C674.364,229.416 681.888,226.346 689.779,225.928C689.8,225.927 689.821,225.927 689.842,225.927Z" style="fill:rgb(108,99,255);fill-rule:nonzero;"/>
    </g>
    <g transform="matrix(0.394181,0,0,0.394181,-21.3233,698.307)">
        <path d="M679.334,309.775C679.295,313.179 676.485,315.959 673.08,315.959C669.65,315.959 666.827,313.136 666.827,309.705C666.827,306.275 669.65,303.452 673.08,303.452L673.151,303.452C676.579,303.495 679.368,306.347 679.334,309.775Z" style="fill:rgb(108,99,255);fill-rule:nonzero;"/>
    </g>
    <g transform="matrix(0.394181,0,0,0.394181,-21.3233,698.307)">
        <path d="M697.199,309.976C697.161,313.38 694.35,316.159 690.946,316.159C687.516,316.159 684.693,313.336 684.693,309.906C684.693,306.475 687.516,303.652 690.946,303.652C690.97,303.652 690.993,303.652 691.016,303.653C694.445,303.695 697.234,306.547 697.199,309.976Z" style="fill:rgb(63,61,86);fill-rule:nonzero;"/>
    </g>
    <g transform="matrix(0.394181,0,0,0.394181,-21.3233,698.307)">
        <path d="M715.065,310.176C715.027,313.58 712.216,316.359 708.812,316.359C705.382,316.359 702.559,313.536 702.559,310.106C702.559,306.675 705.382,303.852 708.812,303.852C708.835,303.852 708.859,303.853 708.882,303.853C712.311,303.895 715.1,306.747 715.065,310.176Z" style="fill:rgb(230,230,230);fill-rule:nonzero;"/>
    </g>
    <g transform="matrix(0.394181,0,0,0.394181,29.418,751.238)">
        <rect x="488.333" y="210.116" width="144.996" height="110.773" style="fill:rgb(242,242,242);"/>
    </g>
    <g transform="matrix(0.394181,0,0,0.394181,29.418,751.238)">
        <rect x="495.538" y="215.621" width="130.586" height="99.765" style="fill:white;"/>
    </g>
    <g transform="matrix(0.394181,0,0,0.394181,29.418,751.238)">
        <circle cx="517.695" cy="242.988" r="5.422" style="fill:rgb(63,61,86);"/>
    </g>
    <g transform="matrix(0.394181,0,0,0.394181,-21.3233,698.307)">
        <path d="M733.539,373.049L733.545,373.049C735.562,373.049 737.222,374.709 737.222,376.726C737.222,378.744 735.562,380.404 733.545,380.404L676.513,380.404C674.496,380.404 672.836,378.744 672.836,376.726C672.836,374.709 674.496,373.049 676.513,373.049L733.539,373.049M733.546,372.149L676.506,372.149C673.995,372.149 671.929,374.215 671.929,376.726C671.929,379.238 673.995,381.304 676.506,381.304L733.546,381.304C736.057,381.304 738.123,379.238 738.123,376.726C738.123,374.215 736.057,372.149 733.546,372.149Z" style="fill:rgb(63,61,86);fill-rule:nonzero;"/>
    </g>
    <g transform="matrix(0.394181,0,0,0.394181,-21.3233,698.307)">
        <path d="M711.038,381.304L668.109,381.304C665.598,381.304 663.532,379.238 663.532,376.726C663.532,374.215 665.598,372.149 668.109,372.149L711.038,372.149C713.549,372.149 715.615,374.215 715.615,376.726C715.615,379.238 713.549,381.304 711.038,381.304Z" style="fill:rgb(108,99,255);fill-rule:nonzero;"/>
    </g>
    <g transform="matrix(0.394181,0,0,0.394181,29.418,751.238)">
        <circle cx="517.695" cy="265.503" r="5.422" style="fill:rgb(63,61,86);"/>
    </g>
    <g transform="matrix(0.394181,0,0,0.394181,-21.3233,698.307)">
        <path d="M733.539,395.564L733.545,395.564C735.562,395.564 737.222,397.224 737.222,399.241C737.222,401.259 735.562,402.918 733.545,402.918L676.513,402.918C674.496,402.918 672.836,401.259 672.836,399.241C672.836,397.224 674.496,395.564 676.513,395.564L733.539,395.564M733.539,394.664L676.513,394.664C674.002,394.664 671.936,396.73 671.936,399.241C671.936,401.753 674.002,403.819 676.513,403.819L733.539,403.819C736.05,403.819 738.117,401.753 738.117,399.241C738.117,396.73 736.05,394.664 733.539,394.664Z" style="fill:rgb(63,61,86);fill-rule:nonzero;"/>
    </g>
    <g transform="matrix(0.394181,0,0,0.394181,-21.3233,698.307)">
        <path d="M727.248,403.819L668.109,403.819C665.598,403.819 663.532,401.753 663.532,399.241C663.532,396.73 665.598,394.664 668.109,394.664L727.248,394.664C729.76,394.664 731.826,396.73 731.826,399.241C731.826,401.753 729.76,403.819 727.248,403.819Z" style="fill:rgb(108,99,255);fill-rule:nonzero;"/>
    </g>
    <g transform="matrix(0.394181,0,0,0.394181,29.418,751.238)">
        <circle cx="517.695" cy="288.018" r="5.422" style="fill:rgb(63,61,86);"/>
    </g>
    <g transform="matrix(0.394181,0,0,0.394181,-21.3233,698.307)">
        <path d="M733.539,418.079L733.545,418.079C735.562,418.079 737.222,419.739 737.222,421.756C737.222,423.773 735.562,425.433 733.545,425.433L676.513,425.433C674.496,425.433 672.836,423.773 672.836,421.756C672.836,419.739 674.496,418.079 676.513,418.079L733.539,418.079M733.539,417.179L676.513,417.179C674.002,417.179 671.936,419.245 671.936,421.756C671.936,424.267 674.002,426.334 676.513,426.334L733.539,426.334C736.05,426.334 738.117,424.267 738.117,421.756C738.117,419.245 736.05,417.179 733.539,417.179Z" style="fill:rgb(63,61,86);fill-rule:nonzero;"/>
    </g>
    <g transform="matrix(0.394181,0,0,0.394181,-21.3233,698.307)">
        <path d="M692.125,426.334L668.102,426.334C665.591,426.334 663.525,424.267 663.525,421.756C663.525,419.245 665.591,417.178 668.102,417.178C668.105,417.178 668.107,417.178 668.109,417.179L692.125,417.179C694.634,417.182 696.696,419.248 696.696,421.756C696.696,424.265 694.634,426.33 692.125,426.334Z" style="fill:rgb(108,99,255);fill-rule:nonzero;"/>
    </g>
    <g transform="matrix(0.394181,0,0,0.394181,29.418,751.238)">
        <rect x="51.188" y="101.508" width="405.093" height="207.61" style="fill:rgb(242,242,242);"/>
    </g>
    <g transform="matrix(0.394181,0,0,0.394181,29.418,751.238)">
        <rect x="64.692" y="111.824" width="378.087" height="186.978" style="fill:white;"/>
    </g>
    <g transform="matrix(0.394181,0,0,0.394181,-21.3233,698.307)">
        <path d="M524.614,404.557L248.996,404.557C248.523,404.557 248.133,404.168 248.133,403.695L248.133,271.591C248.133,271.118 248.523,270.728 248.996,270.728C249.469,270.728 249.859,271.118 249.859,271.591L249.859,402.832L524.614,402.832C525.087,402.832 525.477,403.221 525.477,403.695C525.477,404.168 525.087,404.557 524.614,404.557Z" style="fill:rgb(63,61,86);fill-rule:nonzero;"/>
    </g>
    <g transform="matrix(0.394181,0,0,0.394181,-21.3233,698.307)">
        <path d="M307.884,395.069L282.815,395.069C281.411,395.068 280.256,393.913 280.255,392.509L280.255,357.952C280.256,356.548 281.411,355.393 282.815,355.391L307.884,355.391C309.288,355.393 310.442,356.548 310.444,357.952L310.444,392.509C310.442,393.913 309.288,395.068 307.884,395.069Z" style="fill:rgb(108,99,255);fill-rule:nonzero;"/>
    </g>
    <g transform="matrix(0.394181,0,0,0.394181,-21.3233,698.307)">
        <path d="M353.599,395.069L328.531,395.069C327.127,395.068 325.972,393.913 325.97,392.509L325.97,325.174C325.972,323.77 327.127,322.616 328.531,322.614L353.599,322.614C355.003,322.616 356.158,323.77 356.16,325.174L356.16,392.509C356.158,393.913 355.003,395.068 353.599,395.069Z" style="fill:rgb(108,99,255);fill-rule:nonzero;"/>
    </g>
    <g transform="matrix(0.394181,0,0,0.394181,-21.3233,698.307)">
        <path d="M399.315,395.069L374.246,395.069C372.842,395.068 371.688,393.913 371.686,392.509L371.686,357.952C371.688,356.548 372.842,355.393 374.246,355.391L399.315,355.391C400.719,355.393 401.874,356.548 401.875,357.952L401.875,392.509C401.874,393.913 400.719,395.068 399.315,395.069Z" style="fill:rgb(108,99,255);fill-rule:nonzero;"/>
    </g>
    <g transform="matrix(0.394181,0,0,0.394181,-21.3233,698.307)">
        <path d="M445.031,395.069L419.962,395.069C418.59,395.099 417.436,393.997 417.401,392.625L417.401,312.12C417.436,310.748 418.59,309.646 419.962,309.676L445.031,309.676C446.403,309.646 447.557,310.748 447.591,312.12L447.591,392.625C447.557,393.997 446.403,395.099 445.031,395.069Z" style="fill:rgb(108,99,255);fill-rule:nonzero;"/>
    </g>
    <g transform="matrix(0.394181,0,0,0.394181,-21.3233,698.307)">
        <path d="M490.746,395.069L465.678,395.069C464.274,395.068 463.119,393.913 463.117,392.509L463.117,288.947C463.119,287.543 464.274,286.388 465.678,286.387L490.746,286.387C492.15,286.388 493.305,287.543 493.307,288.947L493.307,392.509C493.305,393.913 492.15,395.068 490.746,395.069Z" style="fill:rgb(108,99,255);fill-rule:nonzero;"/>
    </g>
    <g transform="matrix(0.394181,0,0,0.394181,29.418,751.238)">
        <circle cx="166.623" cy="205.585" r="5.175" style="fill:rgb(63,61,86);"/>
    </g>
    <g transform="matrix(0.394181,0,0,0.394181,29.418,751.238)">
        <circle cx="212.339" cy="171.945" r="5.175" style="fill:rgb(63,61,86);"/>
    </g>
    <g transform="matrix(0.394181,0,0,0.394181,29.418,751.238)">
        <circle cx="258.054" cy="205.585" r="5.175" style="fill:rgb(63,61,86);"/>
    </g>
    <g transform="matrix(0.394181,0,0,0.394181,29.418,751.238)">
        <circle cx="303.77" cy="155.556" r="5.175" style="fill:rgb(63,61,86);"/>
    </g>
    <g transform="matrix(0.394181,0,0,0.394181,29.418,751.238)">
        <circle cx="349.486" cy="136.58" r="5.175" style="fill:rgb(63,61,86);"/>
    </g>
    <g transform="matrix(0.394181,0,0,0.394181,29.418,751.238)">
        <path d="M258.163,206.744L212.339,172.421L167.14,206.275L166.106,204.895L212.339,170.265L257.945,204.425L303.266,154.83L303.447,154.756L349.163,136.337L349.808,137.937L304.274,156.283L258.163,206.744Z" style="fill:rgb(63,61,86);fill-rule:nonzero;"/>
    </g>
</svg>
