<?xml version="1.0" encoding="UTF-8" standalone="no"?>
<!DOCTYPE svg PUBLIC "-//W3C//DTD SVG 1.1//EN" "http://www.w3.org/Graphics/SVG/1.1/DTD/svg11.dtd">
<svg width="100%" height="100%" viewBox="0 0 1000 1000" version="1.1" xmlns="http://www.w3.org/2000/svg" xmlns:xlink="http://www.w3.org/1999/xlink" xml:space="preserve" xmlns:serif="http://www.serif.com/" style="fill-rule:evenodd;clip-rule:evenodd;stroke-linejoin:round;stroke-miterlimit:2;">
    <g transform="matrix(0.491116,0,0,0.491116,-187.473,-84.1353)">
        <path d="M990.396,289.249L488.802,289.249C481.228,289.249 474.996,295.481 474.996,303.055L474.996,582.534C474.996,590.107 481.228,596.34 488.802,596.34L990.396,596.34C997.97,596.34 1004.2,590.107 1004.2,582.534L1004.2,303.055C1004.2,295.481 997.97,289.249 990.396,289.249Z" style="fill:rgb(63,61,86);fill-rule:nonzero;"/>
    </g>
    <g transform="matrix(0.491116,0,0,0.491116,-106.188,20.3077)">
        <rect x="327.996" y="100.983" width="492.186" height="277.644" style="fill:white;"/>
    </g>
    <g transform="matrix(0.491116,0,0,0.491116,-106.188,20.3077)">
        <circle cx="573.668" cy="88.363" r="5.048" style="fill:white;"/>
    </g>
    <g transform="matrix(0.491116,0,0,0.491116,-106.188,20.3077)">
        <path d="M679.425,378.627L327.996,378.627L327.996,100.983L679.425,378.627Z" style="fill:rgb(242,242,242);fill-rule:nonzero;"/>
    </g>
    <g transform="matrix(0.491116,0,0,0.491116,-187.473,-84.1353)">
        <path d="M1018.02,586.244L969.987,586.244L969.987,582.783C969.987,582.406 969.677,582.096 969.301,582.096L952.832,582.096C952.455,582.096 952.146,582.406 952.146,582.783L952.146,586.244L941.853,586.244L941.853,582.783C941.853,582.406 941.543,582.096 941.167,582.096L924.698,582.096C924.321,582.096 924.012,582.406 924.012,582.783L924.012,586.244L913.719,586.244L913.719,582.783C913.719,582.406 913.409,582.096 913.032,582.096L896.563,582.096C896.187,582.096 895.877,582.406 895.877,582.783L895.877,586.244L885.584,586.244L885.584,582.783C885.584,582.406 885.274,582.096 884.898,582.096L868.429,582.096C868.053,582.096 867.743,582.406 867.743,582.783L867.743,586.244L857.45,586.244L857.45,582.783C857.45,582.406 857.14,582.096 856.764,582.096L840.295,582.096C839.918,582.096 839.609,582.406 839.609,582.783L839.609,586.244L829.316,586.244L829.316,582.783C829.316,582.406 829.006,582.096 828.629,582.096L812.16,582.096C811.784,582.096 811.474,582.406 811.474,582.783L811.474,586.244L801.181,586.244L801.181,582.783C801.181,582.406 800.872,582.096 800.495,582.096L671.489,582.096C671.112,582.096 670.803,582.406 670.803,582.783L670.803,586.244L660.51,586.244L660.51,582.783C660.51,582.406 660.2,582.096 659.823,582.096L643.355,582.096C642.978,582.096 642.668,582.406 642.668,582.783L642.668,586.244L632.375,586.244L632.375,582.783C632.375,582.406 632.066,582.096 631.689,582.096L615.22,582.096C614.844,582.096 614.534,582.406 614.534,582.783L614.534,586.244L604.241,586.244L604.241,582.783C604.241,582.406 603.931,582.096 603.555,582.096L587.086,582.096C586.709,582.096 586.4,582.406 586.4,582.783L586.4,586.244L576.107,586.244L576.107,582.783C576.107,582.406 575.797,582.096 575.421,582.096L558.952,582.096C558.575,582.096 558.265,582.406 558.265,582.783L558.265,586.244L547.972,586.244L547.972,582.783C547.972,582.406 547.663,582.096 547.286,582.096L530.817,582.096C530.441,582.096 530.131,582.406 530.131,582.783L530.131,586.244L519.838,586.244L519.838,582.783C519.838,582.406 519.528,582.096 519.152,582.096L502.683,582.096C502.307,582.096 501.997,582.406 501.997,582.783L501.997,586.244L470.431,586.244C461.397,586.244 453.963,593.678 453.963,602.712L453.963,610.159C453.963,619.194 461.397,626.628 470.431,626.628L1018.02,626.628C1027.06,626.628 1034.49,619.194 1034.49,610.159L1034.49,602.712C1034.49,593.678 1027.06,586.244 1018.02,586.244Z" style="fill:rgb(63,61,86);fill-rule:nonzero;"/>
    </g>
    <g transform="matrix(0.491116,0,0,0.491116,-187.473,-84.1353)">
        <path d="M749.066,554.886C748.902,555.276 748.717,555.658 748.512,556.029C747.439,558.011 745.922,559.718 744.079,561.016C741.626,562.743 738.698,563.67 735.697,563.67C727.708,563.67 721.134,557.096 721.134,549.106L721.134,546.755L723.128,546.755C730.878,551.764 739.844,554.575 749.066,554.886Z" style="fill:rgb(63,61,86);fill-rule:nonzero;"/>
    </g>
    <g transform="matrix(0.491116,0,0,0.491116,-187.473,-84.1353)">
        <path d="M777.53,547.443L777.53,549.111C777.53,557.098 770.958,563.67 762.971,563.67C757.648,563.67 752.733,560.75 750.186,556.076C749.973,555.696 749.78,555.304 749.609,554.903C750.035,554.915 750.455,554.921 750.881,554.921C760.282,554.932 769.507,552.343 777.53,547.443Z" style="fill:rgb(63,61,86);fill-rule:nonzero;"/>
    </g>
    <g transform="matrix(0.491116,0,0,0.491116,-187.473,-84.1353)">
        <path d="M797.152,371.656C796.714,371.592 796.271,371.551 795.828,371.522C800.863,383.126 801.213,396.242 796.802,408.099C797.245,408.046 797.682,407.976 798.12,407.895C806.726,406.227 812.999,398.622 812.999,389.856C812.999,380.726 806.195,372.911 797.152,371.656Z" style="fill:rgb(63,61,86);fill-rule:nonzero;"/>
    </g>
    <g transform="matrix(0.491116,0,0,0.491116,-187.473,-84.1353)">
        <path d="M705.933,371.522C705.49,371.551 705.047,371.592 704.609,371.656C695.566,372.911 688.762,380.726 688.762,389.856C688.762,398.622 695.035,406.227 703.641,407.895C704.078,407.976 704.516,408.046 704.959,408.099C700.549,396.242 700.898,383.127 705.933,371.522Z" style="fill:rgb(63,61,86);fill-rule:nonzero;"/>
    </g>
    <g transform="matrix(0.491116,0,0,0.491116,-187.473,-84.1353)">
        <path d="M797.152,371.656C789.36,353.044 771.063,340.869 750.886,340.869C723.372,340.869 700.731,363.51 700.731,391.024C700.731,418.539 723.372,441.18 750.886,441.18C778.401,441.18 801.042,418.539 801.042,391.024L801.042,391.021C801.04,384.372 799.717,377.789 797.152,371.656ZM796.802,408.099C789.683,427.236 771.312,440.002 750.893,440.002C724.023,440.002 701.911,417.891 701.911,391.02C701.911,364.149 724.023,342.038 750.893,342.038C777.764,342.038 799.876,364.149 799.876,391.02L799.876,391.021C799.874,396.851 798.833,402.634 796.802,408.099Z" style="fill:rgb(63,61,86);fill-rule:nonzero;"/>
    </g>
    <g transform="matrix(0.491116,0,0,0.491116,-187.473,-84.1353)">
        <path d="M776.545,379.647L725.217,379.647C719.617,379.647 715.009,384.254 715.009,389.854C715.009,395.454 719.617,400.061 725.217,400.061L776.545,400.061C782.144,400.061 786.752,395.454 786.752,389.854C786.752,384.254 782.144,379.647 776.545,379.647Z" style="fill:rgb(63,61,86);fill-rule:nonzero;"/>
    </g>
    <g transform="matrix(0.491116,0,0,0.491116,-187.473,-84.1353)">
        <path d="M796.802,478.185C796.615,477.841 796.422,477.503 796.224,477.17C796.219,477.159 796.213,477.153 796.207,477.141C786.81,461.056 769.527,451.136 750.898,451.136C722.112,451.136 698.424,474.824 698.424,503.61C698.424,531.496 720.655,554.761 748.512,556.029C749.066,556.058 749.626,556.076 750.186,556.076C750.42,556.087 750.647,556.087 750.881,556.087C760.257,556.101 769.465,553.584 777.53,548.802C786.291,543.618 793.369,536.011 797.91,526.9C797.916,526.889 797.922,526.883 797.927,526.871C798.103,526.521 798.272,526.165 798.441,525.804C805.551,510.598 804.941,492.866 796.802,478.185ZM797.303,525.483C797.134,525.845 796.959,526.2 796.778,526.55C792.44,535.175 785.771,542.414 777.53,547.443C769.507,552.343 760.282,554.932 750.881,554.921C750.455,554.921 750.035,554.915 749.609,554.903C749.428,554.903 749.247,554.897 749.066,554.886C721.603,553.926 699.533,531.071 699.533,503.591C699.533,475.434 722.702,452.264 750.859,452.264C768.984,452.264 785.815,461.866 795.04,477.468C795.046,477.479 795.052,477.485 795.058,477.497C795.262,477.829 795.46,478.168 795.647,478.506C803.762,492.962 804.38,510.491 797.303,525.483Z" style="fill:rgb(63,61,86);fill-rule:nonzero;"/>
    </g>
    <g transform="matrix(0.491116,0,0,0.491116,-187.473,-84.1353)">
        <path d="M791.226,479.737C790.204,479.009 788.981,478.615 787.726,478.611L764.786,478.611C761.48,478.611 758.761,481.331 758.761,484.636C758.761,487.942 761.48,490.661 764.786,490.661L787.726,490.661C788.135,490.663 788.544,490.622 788.945,490.539C789.344,490.453 789.735,490.33 790.112,490.172C792.316,489.222 793.751,487.041 793.751,484.64C793.751,482.695 792.809,480.866 791.226,479.737Z" style="fill:rgb(63,61,86);fill-rule:nonzero;"/>
    </g>
    <g transform="matrix(0.491116,0,0,0.491116,-106.188,20.3077)">
        <circle cx="600.803" cy="271.971" r="3.059" style="fill:rgb(241,241,241);"/>
    </g>
    <g transform="matrix(0.491116,0,0,0.491116,-106.188,20.3077)">
        <circle cx="610.745" cy="271.971" r="3.059" style="fill:rgb(241,241,241);"/>
    </g>
    <g transform="matrix(0.491116,0,0,0.491116,-106.188,20.3077)">
        <circle cx="620.686" cy="271.971" r="3.059" style="fill:rgb(108,99,255);"/>
    </g>
    <g transform="matrix(0.491116,0,0,0.491116,-187.473,-84.1353)">
        <path d="M901.407,383.818C893.452,388.589 879.279,394.567 864.795,388.423L855.433,384.452L874.195,363.421C859.249,346.942 850.963,325.473 850.963,303.226C850.963,254.071 891.411,213.623 940.565,213.623C989.72,213.623 1030.17,254.071 1030.17,303.226C1030.17,352.38 989.72,392.828 940.565,392.828C926.999,392.828 913.609,389.747 901.407,383.818Z" style="fill:white;fill-rule:nonzero;"/>
    </g>
    <g transform="matrix(0.491116,0,0,0.491116,-187.473,-84.1353)">
        <path d="M901.456,384.952C893.812,389.439 879.25,395.642 864.405,389.344L853.758,384.828L872.852,363.423C858.112,346.843 849.963,325.411 849.963,303.226C849.963,253.523 890.862,212.623 940.565,212.623C990.268,212.623 1031.17,253.523 1031.17,303.226C1031.17,328.777 1020.36,353.172 1001.43,370.337C974.275,395.117 934.569,400.921 901.456,384.952ZM1006.2,243.702C989.409,225.183 965.545,214.607 940.55,214.607C891.945,214.607 851.948,254.603 851.948,303.209C851.948,325.216 860.147,346.452 874.935,362.749L875.54,363.416L857.108,384.077L865.186,387.503C879.524,393.585 893.711,387.267 900.892,382.961L901.357,382.682L901.844,382.919C913.91,388.781 927.151,391.828 940.566,391.828C989.171,391.828 1029.17,351.831 1029.17,303.226C1029.17,281.227 1020.98,259.997 1006.2,243.702Z" style="fill:rgb(108,99,255);fill-rule:nonzero;"/>
    </g>
    <g transform="matrix(0.491116,0,0,0.491116,-187.473,-84.1353)">
        <path d="M1016.21,302.667C1016.21,260.178 983.363,224.292 941.04,220.535C943.442,220.325 945.872,220.211 948.328,220.211C993.543,220.238 1030.74,257.452 1030.74,302.667C1030.74,347.883 993.543,385.096 948.328,385.123C945.875,385.123 943.45,385.008 941.052,384.798C983.37,381.035 1016.21,345.152 1016.21,302.667Z" style="fill-opacity:0.1;fill-rule:nonzero;"/>
    </g>
    <g transform="matrix(0.491116,0,0,0.491116,-106.188,20.3077)">
        <rect x="727.772" y="73.559" width="58.92" height="5.472" style="fill:rgb(108,99,255);"/>
    </g>
    <g transform="matrix(0.491116,0,0,0.491116,-106.188,20.3077)">
        <rect x="727.772" y="92.487" width="102.692" height="5.472" style="fill:rgb(108,99,255);"/>
    </g>
    <g transform="matrix(0.491116,0,0,0.491116,-106.188,20.3077)">
        <rect x="727.772" y="111.415" width="102.591" height="5.472" style="fill:rgb(108,99,255);"/>
    </g>
</svg>
